<?xml version="1.0" encoding="UTF-8"?>
<!-- Created with Inkscape (http://www.inkscape.org/) -->
<svg width="800" height="1200" version="1.1" viewBox="0 0 800 1200" xmlns="http://www.w3.org/2000/svg" xmlns:cc="http://creativecommons.org/ns#" xmlns:dc="http://purl.org/dc/elements/1.1/" xmlns:rdf="http://www.w3.org/1999/02/22-rdf-syntax-ns#">
 <metadata>
  <rdf:RDF>
   <cc:Work rdf:about="">
    <dc:format>image/svg+xml</dc:format>
    <dc:type rdf:resource="http://purl.org/dc/dcmitype/StillImage"/>
    <dc:title/>
   </cc:Work>
  </rdf:RDF>
 </metadata>
 <g fill="none" stroke-width="8">
  <path d="m44.01 1137.2 211.07-365.58s6.5826-11.401 9.99-24.118 3.4074-25.882 3.4074-25.882l-4e-5 -129.06s-2e-5 -21.483 8.221-41.33 23.411-35.038 23.411-35.038l13.789-13.789s14.065-14.065 21.677-32.442 7.612-38.268 7.612-38.268l-1.2e-4 -352.92" stroke="#ec2527" stroke-opacity=".94118"/>
  <g>
   <path d="m593.5 234.13-287.74 287.74s-14.065 14.065-21.677 32.442-7.612 38.268-7.612 38.268l3e-5 129.06s0 14.218-3.68 27.952-10.789 26.048-10.789 26.048l-211.07 365.58" stroke="#ffa500"/>
   <path d="m22.475 753.5 725 1e-4" stroke="#0093d0"/>
   <path d="m422.47 745.5h-212.71s-16.973 0-30.438-10.332-17.858-26.727-17.858-26.727l-1.9392-7.2373" stroke="#69bd47"/>
  </g>
 </g>
 <g fill="#fff" stroke="#000" stroke-linecap="square" stroke-linejoin="bevel">
  <circle cx="272.47" cy="749.5" r="8.5" stroke-width="4"/>
  <g stroke-width="3.5">
   <circle cx="247.47" cy="749.5" r="7"/>
   <circle cx="222.47" cy="749.5" r="7"/>
   <circle cx="197.47" cy="749.5" r="7"/>
   <circle cx="322.47" cy="749.5" r="7"/>
   <circle cx="372.47" cy="749.5" r="7"/>
   <circle cx="422.47" cy="749.5" r="7"/>
   <circle cx="497.47" cy="753.5" r="7"/>
   <circle cx="597.47" cy="753.5" r="7"/>
   <circle cx="672.47" cy="753.5" r="7"/>
   <circle cx="747.47" cy="753.5" r="7"/>
   <circle cx="272.47" cy="724.5" r="7"/>
   <circle cx="272.47" cy="699.5" r="7"/>
   <circle cx="272.47" cy="674.5" r="7"/>
   <circle cx="272.47" cy="649.5" r="7"/>
   <circle cx="272.47" cy="624.5" r="7"/>
   <circle cx="325.51" cy="496.47" r="7"/>
   <circle cx="343.19" cy="403.79" r="7"/>
   <circle cx="381.37" cy="446.26" r="7"/>
   <circle cx="522.79" cy="304.84" r="7"/>
   <circle cx="593.5" cy="234.13" r="7"/>
   <circle cx="343.19" cy="228.79" r="7"/>
   <circle cx="343.19" cy="178.79" r="7"/>
   <circle cx="343.18" cy="128.79" r="7"/>
   <circle cx="343.18" cy="78.791" r="7"/>
   <circle cx="434.4" cy="393.23" r="7"/>
   <circle cx="159.53" cy="701.21" r="7"/>
   <circle cx="122.47" cy="753.5" r="7"/>
   <circle cx="22.475" cy="753.5" r="7"/>
   <circle cx="234.97" cy="814.45" r="7"/>
   <circle cx="197.47" cy="879.41" r="7"/>
   <circle cx="159.97" cy="944.36" r="7"/>
   <circle cx="72.474" cy="1095.9" r="7"/>
   <circle cx="47.474" cy="1139.2" r="7"/>
   <circle cx="297.47" cy="749.5" r="7"/>
   <circle cx="259.97" cy="771.15" r="7"/>
   <circle cx="122.47" cy="1009.3" r="7"/>
   <circle cx="547.47" cy="753.5" r="7"/>
  </g>
 </g>
 <g>
  <g fill="#000000" font-family="sans-serif" letter-spacing="-.5px" word-spacing="0px">
   <g font-size="21.333px">
    <g>
     <g>
      <text x="360.07913" y="86.880951" style="line-height:0.89999998" xml:space="preserve"><tspan x="360.07913" y="86.880951"><tspan font-size="16px" font-weight="bold">(N11) </tspan>North Springs</tspan></text>
      <text x="360.07913" y="136.88097" style="line-height:0.89999998" xml:space="preserve"><tspan x="360.07913" y="136.88097"><tspan font-size="16px" font-weight="bold">(N10) </tspan>Sandy Springs</tspan></text>
      <text x="360.07916" y="186.88098" style="line-height:0.89999998" xml:space="preserve"><tspan x="360.07916" y="186.88098"><tspan font-size="16px" font-weight="bold">(N9) </tspan>Dunwoody</tspan></text>
      <text x="360.07916" y="236.88098" style="line-height:0.89999998" xml:space="preserve"><tspan x="360.07916" y="236.88098"><tspan font-size="16px" font-weight="bold">(N8) </tspan>Medical Center</tspan></text>
     </g>
     <text x="326.79095" y="411.88101" text-align="end" text-anchor="end" style="line-height:0.89999998" xml:space="preserve"><tspan x="326.29095" y="411.88101">Buckhead<tspan font-size="16px" font-weight="bold"> (N7)</tspan></tspan></text>
     <g>
      <text x="400.33496" y="462.51331" style="line-height:0.89999998" xml:space="preserve"><tspan x="400.33496" y="462.51331"><tspan font-size="16px" font-weight="bold">(NE7) </tspan>Lenox</tspan></text>
      <text x="453.36795" y="409.48026" style="line-height:0.89999998" xml:space="preserve"><tspan x="453.36795" y="409.48026"><tspan font-size="16px" font-weight="bold">(NE8) </tspan>Brookhaven /</tspan><tspan x="453.36795" y="428.68027">Oglethorpe</tspan></text>
      <text x="541.75629" y="321.09189" style="line-height:0.89999998" xml:space="preserve"><tspan x="541.75629" y="321.09189"><tspan font-size="16px" font-weight="bold">(NE9) </tspan>Chamblee</tspan></text>
      <text x="612.46698" y="250.38115" style="line-height:0.89999998" xml:space="preserve"><tspan x="612.46698" y="250.38115"><tspan font-size="16px" font-weight="bold">(NE10) </tspan>Doraville</tspan></text>
      <text x="344.47354" y="512.7179" style="line-height:0.89999998" xml:space="preserve"><tspan x="344.47354" y="512.7179"><tspan font-size="16px" font-weight="bold">(N6) </tspan>Lindbergh Center</tspan></text>
     </g>
    </g>
    <text x="306.25" y="720" font-weight="bold" style="line-height:0.89999998" xml:space="preserve"><tspan x="306.25" y="720">FIVE POINTS</tspan></text>
    <g>
     <g>
      <text x="305" y="690" style="line-height:0.89999998" xml:space="preserve"><tspan x="305" y="690"><tspan font-size="16px" font-weight="bold">(N1) </tspan>Peachtree Ctr</tspan></text>
      <text x="303.75" y="660" style="line-height:0.89999998" xml:space="preserve"><tspan x="303.75" y="660"><tspan font-size="16px" font-weight="bold">(N2) </tspan>Civic Ctr</tspan></text>
      <text x="302.5" y="630" style="line-height:0.89999998" xml:space="preserve"><tspan x="302.5" y="630"><tspan font-size="16px" font-weight="bold">(N3) </tspan>North Ave</tspan></text>
      <text x="301.25" y="600" style="line-height:0.89999998" xml:space="preserve"><tspan x="301.25" y="600"><tspan font-size="16px" font-weight="bold">(N4) </tspan>Midtown</tspan></text>
      <text x="300" y="570" style="line-height:0.89999998" xml:space="preserve"><tspan x="300" y="570"><tspan font-size="16px" font-weight="bold">(N5) </tspan>Arts Ctr</tspan></text>
      <text x="5" y="720" style="line-height:0.89999998" xml:space="preserve"><tspan x="5" y="720">H.E. Holmes </tspan><tspan x="5" y="739.20001" font-size="16px" font-weight="bold">(W5)</tspan></text>
     </g>
     <text x="115.25" y="780" text-align="center" text-anchor="middle" style="line-height:0.89999998" xml:space="preserve"><tspan x="115" y="780" font-size="16px" font-weight="bold">(W4)</tspan><tspan x="115" y="799.20001">West</tspan><tspan x="115" y="818.40002">Lake</tspan></text>
     <text x="159.07309" y="688.75464" text-align="end" text-anchor="end" style="line-height:0.89999998" xml:space="preserve"><tspan x="158.57309" y="688.75464">Bankhead<tspan font-size="16px" font-weight="bold"> (P4)</tspan></tspan></text>
     <g text-anchor="middle">
      <text x="217.72446" y="689.50153" text-align="center" style="line-height:0.89999998" xml:space="preserve"><tspan x="217.47446" y="689.50153">Vine</tspan><tspan x="217.47446" y="708.70154">City</tspan><tspan x="217.47446" y="727.90155" font-size="16px" font-weight="bold">(W2)</tspan></text>
      <text x="184.22447" y="629.50153" text-align="center" style="line-height:0.89999998" xml:space="preserve"><tspan x="187.47447" y="629.50153">GWCC / </tspan><tspan x="186.45885" y="648.70154" font-size="16px" font-weight="bold"><tspan font-size="21.333px" font-weight="normal">CNN Ctr </tspan>(W1)     </tspan></text>
      <text x="190.25" y="780" text-align="center" style="line-height:0.89999998" xml:space="preserve"><tspan x="190" y="780" font-size="16px" font-weight="bold">(W3)</tspan><tspan x="190" y="799.20001">Ashby</tspan></text>
     </g>
     <text x="247.5" y="880" style="line-height:0.89999998" xml:space="preserve"><tspan x="247.5" y="880"><tspan font-size="16px" font-weight="bold">(S1) </tspan>Garnett</tspan></text>
     <text x="225" y="910" style="line-height:0.89999998" xml:space="preserve"><tspan x="225" y="910"><tspan font-size="16px" font-weight="bold">(S2) </tspan>West End</tspan></text>
     <text x="187.67221" y="872.34833" text-align="end" text-anchor="end" style="line-height:0.89999998" xml:space="preserve"><tspan x="187.17221" y="872.34833">Oakland City<tspan font-size="16px" font-weight="bold"> (S3)</tspan></tspan></text>
     <g>
      <text x="94.999992" y="1106.6987" style="line-height:0.89999998" xml:space="preserve"><tspan x="94.999992" y="1106.6987"><tspan font-size="16px" font-weight="bold">(S6) </tspan>College Park</tspan></text>
      <text x="70" y="1150" style="line-height:0.89999998" xml:space="preserve"><tspan x="70" y="1150"><tspan font-size="16px" font-weight="bold">(S7) </tspan>Airport</tspan></text>
      <text x="182.5" y="955.14429" style="line-height:0.89999998" xml:space="preserve"><tspan x="182.5" y="955.14429"><tspan font-size="16px" font-weight="bold">(S4) </tspan>Lakewood /</tspan><tspan x="182.5" y="974.3443">Fort McPherson</tspan></text>
      <text x="145" y="1020.0962" style="line-height:0.89999998" xml:space="preserve"><tspan x="145" y="1020.0962"><tspan font-size="16px" font-weight="bold">(S5) </tspan>East Point</tspan></text>
      <text x="270" y="850" style="line-height:0.89999998" xml:space="preserve"><tspan x="270" y="850"><tspan font-size="16px" font-weight="bold">(E1) </tspan>Georgia State</tspan></text>
     </g>
     <g text-anchor="middle">
      <text x="747.72449" y="783.50153" text-align="center" style="line-height:0.89999998" xml:space="preserve"><tspan x="747.47449" y="783.50153"><tspan font-size="16px" font-weight="bold">(E9)</tspan></tspan><tspan x="747.47449" y="802.70154">Indian</tspan><tspan x="747.47449" y="821.90155">Creek</tspan></text>
      <text x="597.72449" y="783.50153" text-align="center" style="line-height:0.89999998" xml:space="preserve"><tspan x="597.47449" y="783.50153" font-size="16px" font-weight="bold">(E7)</tspan><tspan x="597.47449" y="802.70154">Avondale</tspan></text>
      <text x="547.72449" y="713.50153" text-align="center" style="line-height:0.89999998" xml:space="preserve"><tspan x="547.47449" y="713.50153">Decatur</tspan><tspan x="547.47449" y="732.70154" font-size="16px" font-weight="bold">(E6)</tspan></text>
      <text x="517.72449" y="843.50153" text-align="center" style="line-height:0.89999998" xml:space="preserve"><tspan x="517.47449" y="843.50153" font-size="16px" font-weight="bold">(E5)</tspan><tspan x="517.47449" y="862.70154">East</tspan><tspan x="517.47449" y="881.90155">Lake</tspan></text>
      <text x="546.75" y="600" text-align="center" style="line-height:0.89999998" xml:space="preserve"><tspan x="550" y="600">Edgewood / </tspan><tspan x="546.5" y="619.20001">Candler Park</tspan><tspan x="546.5" y="638.40002" font-size="16px" font-weight="bold">(E4)</tspan></text>
     </g>
    </g>
   </g>
   <text x="382.72449" y="777.00153" font-size="16px" text-align="center" text-anchor="middle" style="line-height:0.89999998" xml:space="preserve"><tspan x="382.47449" y="777.00153"><tspan font-size="13.333px" font-weight="bold">(E3) </tspan>Inman Park /</tspan><tspan x="382.47449" y="791.40155">Reynoldstown</tspan></text>
   <text x="292.5" y="820" font-size="21.333px" style="line-height:0.89999998" xml:space="preserve"><tspan x="292.5" y="820"><tspan font-size="16px" font-weight="bold">(E2) </tspan>King Memorial</tspan></text>
  </g>
  <g fill="none" stroke="#000" stroke-width="1px">
   <path d="m303.75 712.5h-10l-21.276 37.002"/>
   <path d="m302.5 682.5h-10l-20.026 42.002"/>
   <path d="m301.25 652.5h-10l-18.776 47.002"/>
   <path d="m300 622.5h-10l-17.526 52.002"/>
   <path d="m298.75 592.5h-10l-16.276 57.002"/>
   <path d="m297.5 562.5h-10l-15.026 62.002"/>
   <path d="m247.47 749.5v-125h-20"/>
   <path d="m234.97 814.45v75.547"/>
   <path d="m260 770v90"/>
   <path d="m280 830v-20l17.474-60.498"/>
   <path d="m300 800v-20l22.474-30.498"/>
   <path d="m550 640v20l-127.53 89.502"/>
  </g>
  <text x="672.72449" y="713.50153" fill="#000000" font-family="sans-serif" font-size="21.333px" letter-spacing="-.5px" text-align="center" text-anchor="middle" word-spacing="0px" style="line-height:0.89999998" xml:space="preserve"><tspan x="672.47449" y="713.50153">Kensington</tspan><tspan x="672.47449" y="732.70154" font-size="16px" font-weight="bold">(E8)</tspan></text>
  <g fill="none" stroke="#000" stroke-width="1px">
   <path d="m497.47 843.5v-90"/>
   <path d="m22.475 753.5v-13.501"/>
   <path d="m122.47 753.5v11.498"/>
   <path d="m197.47 749.5v11.498"/>
   <path d="m222.47 749.5v-13.501"/>
   <path d="m372.47 749.5v11.498"/>
   <path d="m547.47 753.5v-13.501"/>
   <path d="m597.47 753.5v11.498"/>
   <path d="m672.47 753.5v-13.501"/>
   <path d="m747.47 753.5v11.498"/>
  </g>
 </g>
</svg>
